# AST/ASF file generated using VICON BodyLanguage
# -----------------------------------------------
:version 1.10
:name VICON
:units
  mass 1.0
  length 0.45
  angle deg
:documentation
   .ast/.asf automatically generated from VICON data using
   VICON BodyBuilder and BodyLanguage model FoxedUp or BRILLIANT.MOD
:root
   order TX TY TZ RX RY RZ
   axis XYZ
   position 0 0 0  
   orientation 0 -0 0 
:bonedata
  begin
     id 1 
     name lhipjoint
     direction 0.432694 -0.693742 0.575759 
     length 2.19277 
     axis 0 -0 0  XYZ
  end
  begin
     id 2 
     name lfemur
     direction 0.34202 -0.939693 0  
     length 6.69022  
     axis 0 -0 20  XYZ
    dof rx ry rz
    limits (-160.0 20.0)
           (-70.0 70.0)
           (-60.0 70.0)
  end
  begin
     id 3 
     name ltibia
     direction 0.34202 -0.939693 0   
     length 6.50337   
     axis 0 -0 20   XYZ
    dof rx
    limits (-10.0 170.0)
  end
  begin
     id 4 
     name lfoot
     direction 0.158999 -0.435969 0.885805   
     length 2.70564   
     axis -90 -1.13533e-015 20   XYZ
    dof rx rz
    limits (-45.0 90.0)
           (-70.0 20.0)
  end
  begin
     id 5 
     name ltoes
     direction -0.00592919 0.00964381 0.999936   
     length 1.29929   
     axis -90 -1.13533e-015 20   XYZ
    dof rx
    limits (-90.0 20.0)
  end
  begin
     id 6 
     name rhipjoint
     direction -0.414359 -0.700339 0.581234   
     length 2.17212  
     axis 0 -0 0  XYZ 
  end
  begin
     id 7 
     name rfemur
     direction -0.34202 -0.939693 0   
     length 7.17659   
     axis 0 -0 -20   XYZ
    dof rx ry rz
    limits (-160.0 20.0)
           (-70.0 70.0)
           (-70.0 60.0)
  end
  begin
     id 8 
     name rtibia
     direction -0.34202 -0.939693 0   
     length 6.36669   
     axis 0 -0 -20   XYZ
    dof rx
    limits (-10.0 170.0)
 end
 begin
     id 9 
     name rfoot
     direction -0.137064 -0.37658 0.916188   
     length 2.22351  
     axis -90 1.13533e-015 -20   XYZ
    dof rx rz
    limits (-45.0 90.0)
           (-20.0 70.0)
  end
  begin
     id 10 
     name rtoes
     direction -0.000784077 -0.00289101 0.999996   
     length 1.09522   
     axis -90 1.13533e-015 -20   XYZ
    dof rx
    limits (-90.0 20.0)
  end
  begin
     id 11 
     name lowerback
     direction -0.0176242 0.984912 -0.172157   
     length 1.65301   
     axis 0 -0 0   XYZ
    dof rx ry rz
    limits (-20.0 45.0)
           (-30.0 30.0)
           (-30.0 30.0)
  end
  begin
     id 12 
     name upperback
     direction -0.00218128 0.998776 -0.0494072   
     length 1.67776   
     axis 0 -0 0   XYZ
    dof rx ry rz
    limits (-20.0 45.0)
           (-30.0 30.0)
           (-30.0 30.0)
  end
  begin
     id 13 
     name thorax
     direction 0.00544186 0.999658 0.0255711   
     length 1.72293   
     axis 0 -0 0   XYZ
    dof rx ry rz
    limits (-20.0 45.0)
           (-30.0 30.0)
           (-30.0 30.0)
  end
  begin
     id 14 
     name lowerneck
     direction -0.105325 0.983841 0.144785   
     length 2.14226   
     axis 0 -0 0   XYZ
    dof rx ry rz
    limits (-20.0 45.0)
           (-30.0 30.0)
           (-30.0 30.0)
  end
  begin
     id 15 
     name upperneck
     direction 0.0547957 0.988053 -0.144041   
     length 2.17508   
     axis 0 -0 0   XYZ
    dof rx ry rz
    limits (-20.0 45.0)
           (-30.0 30.0)
           (-30.0 30.0)
  end
  begin
     id 16
     name head
     direction 0.0247488 0.997534 -0.0656813  
     length 2.20048  
     axis 0 -0 0   XYZ
    dof rx ry rz
    limits (-20.0 45.0)
           (-30.0 30.0)
           (-30.0 30.0)
  end
  begin
     id 17 
     name lclavicle
     direction 0.820559 0.567247 -0.0701026  
     length 4.09615  
     axis 0 -0 0   XYZ
    dof ry rz
    limits (-20.0 10.0)
           (0.0 20.0)
  end
  begin
     id 18 
     name lhumerus
     direction 0.999977 -0.0067566 -9.96392e-005   
     length 4.59333   
     axis -180 -30 -90   XYZ
    dof rx ry rz
    limits (-60.0 90.0)
           (-90.0 90.0)
           (-90.0 90.0)
  end
  begin
     id 19
     name lradius
     direction 1 -4.48982e-011 -2.53425e-027   
     length 2.81151   
     axis -180 -30 -90   XYZ
    dof rx
    limits (-10.0 170.0)
  end
  begin
     id 20
     name lwrist
     direction 1 -4.48939e-011 -7.39254e-028   
     length 1.40576   
     axis 2.56395e-016 90 90   XYZ
    dof ry
    limits (-180.0 0.0)
 end
  begin
     id 21 
     name lhand
     direction 1 -4.48939e-011 -1.47851e-027   
     length 0.895651   
     axis 9.43423e-016 90 90   XYZ
    dof rx rz
    limits (-90.0 90.0)
           (-45.0 45.0)
  end
  begin
     id 22 
     name lfingers
     direction 1 -4.48978e-011 -2.95702e-027   
     length 0.722097   
     axis 1.88685e-015 90 90   XYZ
    dof rx
    limits (0.0 90.0)
  end
  begin
     id 23
     name lthumb
     direction 0.707107 -6.34931e-011 0.707107   
     length 1.03679   
     axis -90 45 -9.86935e-015   XYZ
    dof rx rz
    limits (-45.0 45.0)
           (-45.0 45.0)
  end
  begin
     id 24 
     name rclavicle
     direction -0.831414 0.553102 -0.0531864   
     length 4.24872  
     axis 0 -0 0   XYZ 
    dof ry rz
    limits (-10.0 20.0)
           (-20.0 0.0)
  end
  begin
     id 25 
     name rhumerus
     direction -0.999916 -0.000939607 0.0129331  
     length 4.74834   
     axis -180 30 90   XYZ
    dof rx ry rz
    limits (-90.0 60.0)
           (-90.0 90.0)
           (-90.0 90.0)
  end
  begin
     id 26 
     name rradius
     direction -1 -4.48956e-011 -1.31752e-027   
     length 2.79907   
     axis -180 30 90   XYZ
    dof rx
    limits (-10.0 170.0)
  end
  begin
     id 27 
     name rwrist
     direction -1 -4.4897e-011 -7.39254e-028   
     length 1.39954   
     axis 2.56395e-016 -90 -90   XYZ
    dof ry
    limits (-180.0 0.0)
  end
  begin
     id 28
     name rhand
     direction -0.999997 -0.00250697 0.000800838   
     length 0.953304   
     axis 9.43423e-016 -90 -90   XYZ
    dof rx rz
    limits (-90.0 90.0)
           (-45.0 45.0)
  end
  begin
     id 29
     name rfingers
     direction -1 -4.48954e-011 -2.95702e-027   
     length 0.763342   
     axis 1.88685e-015 -90 -90   XYZ
    dof rx
    limits (0.0 90.0)
  end
  begin
     id 30
     name rthumb
     direction -0.709701 -0.00217037 0.7045   
     length 1.10115   
     axis -90 -45 9.86935e-015   XYZ
    dof rx rz
    limits (-45.0 45.0)
           (-45.0 45.0)
  end
:hierarchy
  begin
    root lhipjoint rhipjoint lowerback
    lhipjoint lfemur
    lfemur ltibia
    ltibia lfoot
    lfoot ltoes
    rhipjoint rfemur
    rfemur rtibia
    rtibia rfoot
    rfoot rtoes
    lowerback upperback
    upperback thorax
    thorax lowerneck lclavicle rclavicle
    lowerneck upperneck
    upperneck head
    lclavicle lhumerus
    lhumerus lradius
    lradius lwrist
    lwrist lhand lthumb
    lhand lfingers
    rclavicle rhumerus
    rhumerus rradius
    rradius rwrist
    rwrist rhand rthumb
    rhand rfingers
  end

#!OML:ASF G:\ViconDB\ViconDB\414\test\team2\shane.ASF
:FULLY-SPECIFIED
:DEGREES
49
root 4.07723 21.7549 -17.3912 -2.94225 0.391459 -7.72973
lowerback 48.3042 5.38186 5.11221
upperback 2.24565 25.1163 9.25501
thorax -114.968 -9.07598 -14.9477
lowerneck 44.9075 10.8073 -32.3241
upperneck 29.8585 -2.66479 13.0335
head 6.09604 -5.41492 9.8752
rclavicle -5.00937e-014 -5.1684e-014
rhumerus 28.6369 41.9923 358.016
rradius 72.8237
rwrist 15.0051
rhand -41.4296 -28.768
rfingers 7.12502
rthumb -14.3456 -58.2523
lclavicle -5.00937e-014 -5.1684e-014
lhumerus -164.585 -143.545 235.115
lradius 61.0856
lwrist 13.4944
lhand -56.0647 33.4078
lfingers 7.12502
lthumb -28.3981 61.2735
rfemur 8.22322 -16.4599 16.6133
rtibia 23.2561
rfoot 11.828 8.57703
rtoes -5.81395
lfemur 5.13795 12.4088 -2.53623
ltibia 30.3703
lfoot 4.58474 -20.1345
ltoes 2.71497
50
root 4.08092 22.0538 -17.3748 -3.21047 0.541065 -7.68783
lowerback 48.2215 5.3532 5.10556
upperback 2.12478 24.9585 9.19301
thorax -114.705 -8.9332 -14.8463
lowerneck 45.0754 10.5341 -32.2086
upperneck 29.7065 -2.94816 12.3847
head 6.10674 -5.52804 9.59402
rclavicle 5.1684e-014 9.93923e-014
rhumerus 28.6369 41.9923 358.016
rradius 72.8237
rwrist 15.0051
rhand -41.4296 -28.768
rfingers 7.12502
rthumb -14.3456 -58.2523
lclavicle 5.1684e-014 9.93923e-014
lhumerus -162.597 -143.368 233.038
lradius 60.0749
lwrist 12.3745
lhand -55.3276 30.4638
lfingers 7.12502
lthumb -27.6935 58.4448
rfemur 8.78604 -15.5555 17.01
rtibia 23.2642
rfoot 10.3722 7.4128
rtoes -6.89906
lfemur 5.6466 12.3399 -2.6808
ltibia 30.9045
lfoot 3.19694 -19.2999
ltoes 1.71596
51
root 4.0845 22.335 -17.351 -3.47241 0.717748 -7.48401
lowerback 48.2259 5.25026 5.00943
upperback 2.10138 24.5084 9.02257
thorax -114.828 -8.75516 -14.5504
lowerneck 45.2072 10.544 -32.049
upperneck 29.5818 -2.91662 12.4253
head 6.03411 -5.49182 9.58766
rclavicle 4.13472e-014 4.57205e-014
rhumerus 30.4207 41.6768 360.101
rradius 71.5211
rwrist 16.4771
rhand -41.4296 -28.768
rfingers 7.12502
rthumb -14.3456 -58.2523
lclavicle 4.13472e-014 4.57205e-014
lhumerus -161.234 -143.166 231.106
lradius 59.4487
lwrist 9.86498
lhand -54.8422 28.9829
lfingers 7.12502
lthumb -27.2292 57.0376
rfemur 9.34434 -14.7882 17.1981
rtibia 23.2285
rfoot 8.7909 5.94625
rtoes -7.48373
lfemur 6.20192 12.2393 -2.95155
ltibia 31.3352
lfoot 1.8223 -18.5219
ltoes 0.609266
52
root 4.09459 22.6062 -17.3257 -3.70186 0.869489 -7.4423
lowerback 48.2453 5.21666 5.00866
upperback 1.85948 24.2261 8.88439
thorax -114.157 -8.6761 -14.5082
lowerneck 44.5386 10.0097 -31.7147
upperneck 29.9816 -3.15316 12.1612
head 6.21894 -5.56102 9.45601
rclavicle -2.18663e-014 -5.62561e-014
rhumerus 30.1605 41.024 360.198
rradius 71.9562
rwrist 17.0187
rhand -39.5194 -26.78
rfingers 7.12502
rthumb -12.5045 -56.3859
lclavicle -2.18663e-014 -5.62561e-014
lhumerus -161.234 -143.166 231.106
lradius 59.4487
lwrist 9.86498
lhand -54.8422 28.9829
lfingers 7.12502
lthumb -27.2292 57.0376
rfemur 9.79624 -14.3759 17.4126
rtibia 23.3048
rfoot 7.18815 4.70583
rtoes -7.17807
lfemur 6.64572 11.6933 -3.21996
ltibia 31.6181
lfoot 0.669804 -17.7111
ltoes -0.048752
53
root 4.10925 22.8652 -17.2947 -3.79138 0.924104 -7.49209
lowerback 48.1101 5.11447 5.04639
upperback 1.61545 23.8864 8.7853
thorax -113.616 -8.33859 -14.241
lowerneck 44.3577 10.1421 -31.6343
upperneck 29.9917 -2.94453 12.7689
head 6.15118 -5.44432 9.69582
rclavicle -1.66979e-014 -5.4467e-014
rhumerus 30.5489 40.7929 360.629
rradius 71.3425
rwrist 16.4113
rhand -40.1864 -25.8256
rfingers 7.12502
rthumb -13.1475 -55.3911
lclavicle -1.66979e-014 -5.4467e-014
lhumerus -161.234 -143.166 231.106
lradius 59.4487
lwrist 9.86498
lhand -54.8422 28.9829
lfingers 7.12502
lthumb -27.2292 57.0376
rfemur 10.0957 -14.5678 17.5503
rtibia 23.3748
rfoot 5.68913 4.16583
rtoes -7.66576
lfemur 6.96189 11.1997 -3.4104
ltibia 31.8572
lfoot -0.50983 -17.3166
ltoes -0.514121
54
root 4.11787 23.1094 -17.2612 -3.85896 0.927785 -7.31998
lowerback 47.8937 5.09267 4.95134
upperback 1.37305 23.4514 8.55665
thorax -113.14 -8.22072 -14.1049
lowerneck 43.5938 9.66171 -31.3867
upperneck 30.7685 -3.17299 12.6134
head 6.49332 -5.55748 9.62937
rclavicle -2.26615e-014 -7.51406e-014
rhumerus 30.0577 40.1073 362.206
rradius 72.8696
rwrist 15.1329
rhand -39.9991 -25.527
rfingers 7.12502
rthumb -12.9669 -55.1041
lclavicle -2.26615e-014 -7.51406e-014
lhumerus -159.096 -145.379 228.397
lradius 59.5159
lwrist 4.36226
lhand -53.5971 22.27
lfingers 7.12502
lthumb -26.0376 50.5057
rfemur 10.3883 -14.7724 17.4377
rtibia 23.4244
rfoot 4.40919 3.69118
rtoes -7.73664
lfemur 7.1953 10.8622 -3.79414
ltibia 32.041
lfoot -1.45334 -17.2094
ltoes -0.677063
55
root 4.13124 23.3429 -17.2336 -3.81012 1.09623 -7.25589
lowerback 21.6838 2.77372 21.9599
upperback -1.61508 9.49039 0.502281
thorax -10.0652 3.2931 -13.6624
lowerneck -9.18609 -11.9412 -27.8304
upperneck 12.412 -14.9776 18.1969
head 8.96906 -7.30014 8.84259
rclavicle 1.15469e-013 2.14687e-014
rhumerus 17.6283 -35.4983 366.603
rradius 82.439
rwrist 11.6636
rhand -39.9991 -25.527
rfingers 7.12502
rthumb -12.9669 -55.1041
lclavicle 1.15469e-013 2.14687e-014
lhumerus -104.56 -200.817 225.69
lradius 56.2941
lwrist 0.184209
lhand -53.9999 20.9697
lfingers 7.12502
lthumb -26.4233 49.148
rfemur 10.532 -15.359 17.3476
rtibia 23.4759
rfoot 3.25654 3.51696
rtoes -8.3741
lfemur 7.20681 10.4238 -4.06141
ltibia 32.1884
lfoot -2.21082 -17.3436
ltoes -0.627923
56
root 4.14016 23.569 -17.2096 -3.72585 1.17565 -7.3712
lowerback 21.4599 2.78177 22.0072
upperback -1.90304 9.4963 0.451481
thorax -10.261 3.24304 -13.7523
lowerneck -8.27243 -11.543 -27.8898
upperneck 12.3813 -14.7689 18.7469
head 8.80004 -7.22276 9.14818
rclavicle 2.16427e-014 -2.22639e-014
rhumerus 17.2797 -34.6385 366.504
rradius 81.7756
rwrist 12.0729
rhand -40.3136 -26.5929
rfingers 7.12502
rthumb -13.2701 -56.1505
lclavicle 2.16427e-014 -2.22639e-014
lhumerus -104.823 -200.369 226.01
lradius 56.887
lwrist -0.282711
lhand -54.2494 20.513
lfingers 7.12502
lthumb -26.662 48.6553
rfemur 10.5826 -15.4459 17.6523
rtibia 23.4474
rfoot 2.51603 3.2479
rtoes -8.74634
lfemur 7.11508 10.3008 -4.03394
ltibia 32.3071
lfoot -2.78195 -17.6028
ltoes -0.801129
57
root 4.15454 23.779 -17.1906 -3.64452 1.25182 -7.3536
lowerback 21.1242 2.89178 21.8393
upperback -2.03788 9.54817 0.590382
thorax -10.2723 3.26929 -13.5024
lowerneck -8.41174 -11.7645 -28.0343
upperneck 13.3362 -15.0604 18.3745
head 9.19816 -7.4013 8.98879
rclavicle 2.16427e-014 -2.22639e-014
rhumerus 17.2797 -34.6385 366.504
rradius 81.7756
rwrist 12.0729
rhand -40.3136 -26.5929
rfingers 7.12502
rthumb -13.2701 -56.1505
lclavicle -1.51114e-013 -9.62118e-014
lhumerus -104.823 -200.369 226.01
lradius 56.887
lwrist -0.282711
lhand -54.2494 20.513
lfingers 7.12502
lthumb -26.662 48.6553
rfemur 10.593 -15.688 17.6908
rtibia 23.3846
rfoot 2.16643 3.53126
rtoes -9.00387
lfemur 7.02562 10.127 -4.17366
ltibia 32.3406
lfoot -3.22978 -17.8451
ltoes -0.855449
58
root 4.16827 23.9785 -17.1713 -3.52622 1.25298 -7.38829
lowerback 20.9519 2.91805 22.1009
upperback -2.24162 9.6158 0.402338
thorax -10.3185 3.26064 -13.8545
lowerneck -7.74336 -11.5099 -27.8249
upperneck 13.5034 -14.964 18.4907
head 9.10203 -7.37946 9.05706
rclavicle 1.51027e-013 -1.11319e-014
rhumerus 16.9548 -33.548 366.183
rradius 82.1246
rwrist 12.6107
rhand -40.322 -28.8119
rfingers 7.12502
rthumb -13.2782 -58.369
lclavicle 1.51027e-013 -1.11319e-014
lhumerus -104.973 -199.446 226.795
lradius 57.7641
lwrist -1.04939
lhand -54.7869 22.4773
lfingers 7.12502
lthumb -27.1763 50.5402
rfemur 10.5227 -15.8765 17.769
rtibia 23.2749
rfoot 2.1883 4.16355
rtoes -9.02524
lfemur 6.91515 10.2081 -4.17748
ltibia 32.2943
lfoot -3.67195 -18.3364
ltoes -1.09709
59
root 4.18583 24.1605 -17.1548 -3.49339 1.24786 -7.41361
lowerback 20.8399 2.97239 22.1926
upperback -2.38877 9.70687 0.41769
thorax -10.383 3.27814 -13.9006
lowerneck -7.9116 -11.6548 -27.6148
upperneck 14.2275 -15.1334 17.9704
head 9.35469 -7.48576 8.80076
rclavicle -1.62817e-014 -2.62396e-014
rhumerus 16.6741 -32.8985 366.169
rradius 82.6786
rwrist 12.1641
rhand -40.522 -29.2331
rfingers 7.12502
rthumb -13.4709 -58.7774
lclavicle -1.62817e-014 -2.62396e-014
lhumerus -105.039 -198.935 227.101
lradius 58.1546
lwrist -1.16628
lhand -55.209 24.8642
lfingers 7.12502
lthumb -27.58 52.8634
rfemur 10.4837 -16.1188 17.751
rtibia 23.1943
rfoot 2.40769 5.00092
rtoes -8.99794
lfemur 6.84754 10.2729 -4.19313
ltibia 32.1514
lfoot -3.93737 -18.7459
ltoes -1.59313
